PathFileType	4	(X/Y/Z)	C:/Users/opensim2020/Desktop/walking_exp_matlab/subject02_walking14_straight_02.trc																																																																																																																									
DataRate	CameraRate	NumFrames	NumMarkers	Units	OrigDataRate	OrigDataStartFrame	OrigNumFrames																																																																																																																					
100	100	4	41	mm	100	840	121																																																																																																																					
Frame#	Time	LFHD			RFHD			LBHD			RBHD			C7			T10			CLAV			STRN			RBAK			LSHO			LUPA			LELB			LFRM			LWRA			LWRB			LFIN			RSHO			RUPA			RELB			RFRM			RWRA			RWRB			RFIN			LASI			RASI			LPSI			RPSI			LTHI			LKNE			LTIB			LANK			LHEE			LTOE			RTHI			RKNE			RTIB			RANK			RHEE			RTOE			*39			*40		
		X1	Y1	Z1	X2	Y2	Z2	X3	Y3	Z3	X4	Y4	Z4	X5	Y5	Z5	X6	Y6	Z6	X7	Y7	Z7	X8	Y8	Z8	X9	Y9	Z9	X10	Y10	Z10	X11	Y11	Z11	X12	Y12	Z12	X13	Y13	Z13	X14	Y14	Z14	X15	Y15	Z15	X16	Y16	Z16	X17	Y17	Z17	X18	Y18	Z18	X19	Y19	Z19	X20	Y20	Z20	X21	Y21	Z21	X22	Y22	Z22	X23	Y23	Z23	X24	Y24	Z24	X25	Y25	Z25	X26	Y26	Z26	X27	Y27	Z27	X28	Y28	Z28	X29	Y29	Z29	X30	Y30	Z30	X31	Y31	Z31	X32	Y32	Z32	X33	Y33	Z33	X34	Y34	Z34	X35	Y35	Z35	X36	Y36	Z36	X37	Y37	Z37	X38	Y38	Z38	X39	Y39	Z39	X40	Y40	Z40	X41	Y41	Z41
																																																																																																																												
31	0.3	-248.6223	1743.8678	972.00677	-259.91833	1730.06812	1115.29785	-382.42438	1676.43005	956.20398	-405.94345	1662.23083	1098.35071	-449.80807	1537.41174	1019.71582	-500.59802	1260.48596	1021.7182	-308.74271	1471.60754	1024.23633	-255.57545	1301.23511	1039.33704	-515.52216	1360.62769	1075.84387	-360.94864	1512.46838	848.66052	-358.39886	1312.00073	763.35651	-353.7403	1170.92102	748.59583	-330.621	1040.86169	737.789	-267.24689	920.06183	775.29919	-309.05264	919.87756	736.71478	-283.1951	859.76154	732.38196	-401.741	1504.26758	1210.0531	-434.56723	1323.45593	1304.91553	-404.7959	1182.86169	1350.28174	-345.73663	1075.49268	1369.26428	-268.49585	965.29413	1345.91968	-308.56567	950.82666	1383.81104	-256.02789	899.80725	1381.12952	-270.61972	998.9682	907.84546	-289.92282	989.36865	1155.71838	-480.44327	1047.74951	966.08813	-496.60345	1046.89331	1081.97351	-333.56992	677.15417	866.508	-363.75037	477.94208	905.86133	-429.73596	293.65244	906.09259	-445.3147	73.28605	954.69452	-489.11172	47.24939	1000.08997	-289.7056	35.6483	970.6402	-323.17075	688.4726	1242.60413	-280.92108	491.38791	1230.90845	-394.10986	345.21002	1219.74561	-485.10699	178.37605	1175.22913	-521.22375	136.33424	1108.46143	-387.43701	64.88106	1227.89636	-352.27744	1817.90784	1052.4646	-2845.979	1034.33337	3356.79004
32	0.31	-235.39067	1743.63245	973.50739	-246.72665	1729.64453	1116.5061	-369.53113	1676.48608	957.13	-393.02652	1662.19995	1099.76575	-436.60529	1537.27222	1020.89771	-487.7493	1260.49585	1022.87158	-295.61551	1471.35376	1024.9314	-242.59491	1300.76855	1039.38049	-502.45966	1360.60779	1077.10608	-348.11258	1512.41846	849.55817	-341.7608	1312.27588	764.17322	-332.94736	1171.04895	749.24023	-304.19843	1041.4082	740.15576	-236.27061	924.55597	779.49414	-278.17236	921.8183	740.78552	-248.83987	863.19275	736.97516	-387.75577	1503.36511	1211.11316	-422.77875	1322.7998	1305.51941	-395.75839	1181.38928	1349.57104	-339.64645	1072.33447	1367.62134	-265.95618	959.83569	1343.59717	-305.9465	946.71295	1382.03406	-255.43529	893.53992	1378.12891	-260.46332	997.30682	906.90692	-275.63245	988.84375	1154.39319	-468.87134	1048.09534	968.47888	-483.59894	1047.22754	1084.40027	-326.39001	676.5376	867.03314	-360.32294	477.53424	906.09888	-427.44583	293.80457	906.2121	-445.10764	73.48853	954.98035	-489.65594	47.93519	1000.6192	-289.59686	35.58751	970.59613	-305.07578	689.60815	1243.49951	-259.80685	492.44873	1230.50806	-365.40143	339.88843	1221.00232	-447.60095	168.12199	1177.76038	-481.90869	123.48335	1111.51196	-342.59021	61.34672	1229.96704	-339.25308	1817.55225	1053.73523	-2846.05151	1034.25427	3356.98926
33	0.32	-222.24979	1743.24573	974.55139	-233.65619	1729.07361	1117.4585	-356.33115	1675.91528	958.29303	-379.81012	1661.53979	1100.75903	-423.30927	1536.7478	1022.05627	-474.79822	1260.15527	1024.07227	-282.47745	1470.70325	1025.66455	-229.63788	1299.96472	1039.41016	-489.56183	1360.44226	1078.5542	-335.0799	1512.07788	850.41711	-325.19693	1312.27771	764.98529	-312.31122	1171.09412	749.84277	-278.97568	1042.32056	742.49554	-205.35866	929.40051	783.86871	-246.76254	923.93378	744.89996	-214.95927	866.99902	741.89246	-373.66058	1502.52148	1212.5365	-411.02271	1321.953	1306.20325	-386.6846	1179.77014	1348.91064	-333.53207	1069.40894	1366.37891	-263.60977	954.45734	1341.3291	-303.48831	942.58563	1380.16736	-254.93341	887.49634	1375.29834	-249.80013	995.48444	905.94965	-261.74173	988.02271	1153.38293	-457.00671	1047.97021	970.75214	-470.62189	1047.3158	1087.04675	-319.16965	675.83264	867.67914	-356.80179	477.00687	906.40472	-425.38138	293.86734	906.48224	-444.89035	73.66769	955.31281	-489.4408	47.84919	1000.78979	-289.24994	35.40117	970.68842	-287.23886	690.58374	1244.30774	-239.24255	493.07986	1230.14734	-336.78845	334.49814	1222.19568	-409.51617	157.85738	1180.61914	-441.98279	110.92725	1115.04053	-297.28326	58.45943	1232.13977	-326.21863	1816.92139	1054.94702	-2846.05518	1034.27344	3356.97095
34	0.33	-209.22487	1742.58911	975.80884	-220.45253	1728.12341	1118.54736	-343.26901	1675.43262	959.2934	-366.52744	1660.56665	1101.75134	-409.96503	1536.00928	1023.21924	-461.92905	1259.6239	1025.41785	-269.46048	1469.64392	1026.57886	-216.60211	1298.78186	1039.58191	-475.55637	1359.43311	1079.1698	-321.8371	1511.34839	851.45917	-308.5098	1312.23486	765.84668	-291.94452	1171.12769	750.36304	-251.90388	1043.79651	744.8194	-174.98152	934.87708	787.85864	-215.90504	926.7934	749.01099	-181.14384	871.58801	746.84906	-359.45056	1501.17139	1213.31592	-399.25424	1320.99902	1306.88281	-377.60794	1178.16699	1348.42407	-327.53848	1066.14172	1365.09155	-261.38736	948.82349	1338.93054	-301.06931	938.47772	1378.42017	-254.49968	881.67017	1372.6571	-238.90605	993.71283	905.02893	-247.66344	987.14069	1152.8833	-445.15332	1047.54456	973.16162	-457.61386	1047.11243	1089.78711	-311.7207	674.73358	868.42719	-353.20865	476.44324	906.83893	-423.37473	293.98862	906.89514	-444.66467	73.81299	955.63104	-489.44031	48.54704	1001.47498	-289.34695	35.41011	970.5307	-269.71643	691.24506	1245.11682	-219.23415	493.22446	1229.80713	-308.09619	328.90921	1223.62866	-370.79346	148.12466	1184.00781	-401.45746	99.0327	1119.13367	-251.9093	56.08691	1234.31458	-313.06229	1816.10168	1056.39807	-2846.01758	1034.10364	3357.01563
